<?xml version="1.0" standalone="no"?>
<!DOCTYPE svg PUBLIC "-//W3C//DTD SVG 20010904//EN"
 "http://www.w3.org/TR/2001/REC-SVG-20010904/DTD/svg10.dtd">
<svg version="1.0" xmlns="http://www.w3.org/2000/svg"
 width="164.000000pt" height="154.000000pt" viewBox="0 0 164.000000 154.000000"
 preserveAspectRatio="xMidYMid meet">
<g transform="translate(0.000000,154.000000) scale(0.100000,-0.100000)"
fill="#1565C0" stroke="none">
<path d="M730 1519 c-121 -24 -254 -130 -307 -246 -22 -47 -28 -77 -31 -157
-3 -54 -1 -97 4 -95 5 2 37 19 70 36 58 30 62 34 68 76 35 235 331 322 491
145 53 -59 75 -123 75 -220 l0 -68 -51 35 c-73 50 -145 69 -244 63 -108 -7
-174 -35 -429 -183 -233 -134 -288 -180 -339 -284 -31 -63 -32 -70 -32 -186 0
-116 1 -123 33 -188 105 -213 369 -305 575 -200 108 54 107 50 27 99 l-71 44
-32 -17 c-22 -11 -56 -17 -107 -17 -62 -1 -84 4 -126 26 -100 53 -154 140
-154 253 0 116 51 197 165 260 34 19 64 35 66 35 2 0 2 -23 0 -52 -6 -96 33
-214 101 -300 16 -20 59 -57 96 -81 139 -92 460 -268 513 -282 248 -66 499 96
541 349 29 176 -62 360 -222 445 l-60 32 0 -83 c0 -80 1 -84 29 -102 43 -29
90 -105 103 -168 23 -108 -26 -226 -119 -288 -100 -65 -199 -66 -315 -2 -40
22 -72 43 -71 47 1 4 30 24 65 44 75 45 146 128 179 209 22 54 24 70 27 349 3
241 1 303 -12 353 -42 162 -177 288 -345 320 -62 12 -98 11 -161 -1z m182
-595 c61 -20 123 -75 156 -138 38 -73 38 -179 0 -252 -53 -100 -140 -153 -253
-154 -233 0 -364 247 -233 441 70 103 205 146 330 103z"/>
<path d="M755 796 c-42 -18 -83 -69 -91 -112 -10 -52 19 -119 64 -149 49 -34
125 -34 173 -2 44 29 74 100 65 150 -18 94 -124 151 -211 113z"/>
</g>
</svg>
