<?xml version="1.0" standalone="no"?>
<!DOCTYPE svg PUBLIC "-//W3C//DTD SVG 20010904//EN"
 "http://www.w3.org/TR/2001/REC-SVG-20010904/DTD/svg10.dtd">
<svg version="1.0" xmlns="http://www.w3.org/2000/svg"
 width="120.000000pt" height="104.000000pt" viewBox="0 0 120.000000 104.000000"
 preserveAspectRatio="xMidYMid meet">
<metadata>
Created by potrace 1.14, written by Peter Selinger 2001-2017
</metadata>
<g transform="translate(0.000000,104.000000) scale(0.100000,-0.100000)"
fill="#fff" stroke="none">
<path d="M527 1030 c-57 -9 -193 -48 -170 -49 6 -1 47 6 90 14 222 43 434 -12
556 -145 85 -92 127 -202 127 -335 0 -187 -87 -327 -251 -407 -120 -59 -202
-72 -418 -66 -102 2 -175 3 -161 1 14 -2 57 -11 95 -21 47 -11 107 -17 185
-16 98 1 127 5 195 28 217 74 361 215 410 401 65 253 -100 507 -378 579 -75
20 -207 27 -280 16z"/>
<path d="M269 943 c-2 -4 -29 -27 -60 -50 -144 -107 -215 -253 -207 -428 5
-127 48 -215 148 -308 39 -36 70 -71 70 -78 0 -7 2 -10 5 -7 3 3 -9 66 -28
141 -32 125 -33 136 -17 140 12 3 22 -4 29 -19 22 -48 91 -111 154 -139 51
-23 77 -29 142 -29 68 -1 88 3 137 27 97 48 166 152 171 258 l2 54 -187 3
-188 2 0 50 0 50 180 0 c204 0 194 -5 164 84 -20 59 -101 149 -153 169 -146
59 -292 4 -373 -140 -16 -29 -34 -53 -39 -53 -23 0 -18 38 20 152 22 67 39
123 37 125 -2 3 -6 1 -7 -4z"/>
</g>
</svg>
