<?xml version="1.0" standalone="no"?>
<!DOCTYPE svg PUBLIC "-//W3C//DTD SVG 20010904//EN"
 "http://www.w3.org/TR/2001/REC-SVG-20010904/DTD/svg10.dtd">
<svg version="1.0" xmlns="http://www.w3.org/2000/svg"
 width="214.000000pt" height="234.000000pt" viewBox="0 0 214.000000 234.000000"
 preserveAspectRatio="xMidYMid meet">
<g transform="translate(0.000000,234.000000) scale(0.100000,-0.100000)"
fill="#fff" stroke="none">
<path fill="#fff" d="M538 2102 l-538 -237 0 -675 1 -675 543 -258 543 -257 526 257 527
256 0 673 0 672 -521 237 c-287 130 -527 238 -533 240 -6 2 -253 -103 -548
-233z m732 61 c364 -72 668 -365 767 -738 26 -99 27 -106 31 -498 l4 -397 -61
0 -61 0 0 92 0 93 -37 -64 c-87 -148 -288 -319 -457 -390 -148 -61 -214 -74
-391 -75 -194 0 -273 17 -440 99 -208 101 -359 252 -460 460 -67 137 -95 246
-102 395 -12 271 82 524 269 724 242 259 586 369 938 299z"/>
<path d="M927 2050 c-195 -33 -362 -124 -502 -272 -94 -99 -152 -196 -196
-328 -28 -84 -33 -112 -37 -232 -4 -118 -1 -151 18 -234 42 -182 151 -359 297
-479 238 -196 580 -251 875 -139 249 94 455 322 528 584 27 98 37 266 21 365
-23 138 -75 266 -157 381 -87 124 -252 251 -394 305 -132 51 -322 71 -453 49z
m524 -330 c16 -9 49 -58 49 -75 0 -13 -22 -2 -50 25 -17 17 -37 30 -44 30 -20
0 -53 -32 -61 -58 -6 -22 -5 -23 17 -16 94 34 239 -57 223 -140 -10 -56 -60
-90 -115 -79 -24 4 -28 8 -19 19 6 8 23 14 37 14 53 0 78 52 46 98 -21 30 -31
28 -38 -11 -11 -57 -103 -127 -168 -127 -50 0 -66 8 -83 41 -21 39 -19 72 6
103 27 35 43 17 24 -27 -23 -55 12 -96 69 -81 29 7 34 22 11 31 -37 14 -63
117 -46 178 20 73 83 106 142 75z m-471 -125 l0 -75 -165 0 -165 0 0 -80 0
-80 160 0 160 0 0 -75 0 -75 -160 0 -160 0 0 -95 0 -95 170 0 170 0 0 -80 0
-80 -275 0 -275 0 0 405 0 405 270 0 270 0 0 -75z m641 -356 c111 -52 158
-175 114 -300 -36 -102 -124 -150 -287 -157 l-108 -5 -2 -156 -3 -156 -102 -3
-103 -3 0 406 0 407 218 -4 c210 -3 219 -4 273 -29z"/>
<path d="M1340 1030 l0 -90 71 0 c65 0 73 2 100 29 16 16 29 40 29 53 -1 64
-50 96 -147 97 l-53 1 0 -90z"/>
</g>
</svg>
