<svg version="1.1" xmlns="http://www.w3.org/2000/svg" xmlns:xlink="http://www.w3.org/1999/xlink" preserveAspectRatio="xMidYMid meet" viewBox="670 292 631 106">
    <g data-item-type="text" data-item="Business" id="logo__item--business" class="logo__item">
        <g class="logo__item__inner" transform="translate(807.703125 365.6035233336491) scale(2.038107380648817 2.038107380648817) rotate(0 0 0)">
            <text data-part-id="logo__item--business" dy="0" dominant-baseline="auto" alignment-baseline="auto" font-family="Arial" font-size="32px" fill="#222" letter-spacing="0" font-weight="normal" font-style="normal" data-font-family="Arial" data-font-weight="normal" data-font-style="normal">ПромТехСтрой</text>
        </g>
    </g>
    <g data-item-type="image" data-item="Image" data-logo-item="" id="logo__item--logo_0" class="logo__item">
        <g class="logo__item__inner" transform="translate(664.1462694578637 279) scale(1.3795164872175387 1.3795164872175387) rotate(0 0 0)">
            <g>
                <g>
                    <path fill="#222" d="M46.282,11.764c2.467-0.008,4.943-0.116,7.401,0.075c0,1.005,0,2.01,0.008,3.016    c0.931,0.166,1.854,0.315,2.8,0.464c-0.365,1.703-0.681,3.415-0.964,5.125c-6.429-1.08-13.249-0.257-18.972,2.949    c-7.044,3.754-12.127,10.674-14.021,18.391c-1.778-0.066-3.538-0.032-5.316-0.041c0.449-2.426,1.213-4.794,2.16-7.052    c-0.914-0.516-1.811-1.056-2.666-1.662c1.238-2.11,2.334-4.303,3.738-6.313c0.905,0.548,1.828,1.047,2.799,1.47    c1.861-2.724,4.319-4.983,6.912-6.994c-0.565-0.914-1.122-1.835-1.462-2.857c2.06-1.063,4.004-2.375,6.081-3.422    c0.939,0.366,1.196,1.736,1.811,2.525c3.082-1.246,6.304-2.168,9.619-2.55C46.224,13.841,46.24,12.811,46.282,11.764z" data-part-id="logo__item--logo_0__0"></path>
                    <path fill="#222" d="M77.29,54.344c1.795-0.008,3.589-0.008,5.383-0.008c-0.399,2.409-1.279,4.676-2.068,6.96    c0.739,0.765,1.818,1.081,2.591,1.828c-1.27,1.944-2.275,4.07-3.57,6.014c-1.039,0.084-1.903-0.904-2.841-1.295    c-2.02,2.666-4.412,5.001-7.036,7.068c0.498,0.872,0.996,1.736,1.511,2.608c-1.993,1.438-4.219,2.509-6.32,3.771    c-0.581-0.839-1.113-1.711-1.554-2.633c-3.14,1.163-6.354,2.144-9.686,2.534c-0.017,1.021-0.017,2.043-0.033,3.064    c-2.459,0.134-4.926,0.075-7.384,0.033c-0.025-1.021-0.042-2.052-0.042-3.065c-0.947-0.166-1.894-0.332-2.841-0.473    c0.357-1.612,0.623-3.24,0.964-4.851l0.225-0.383c6.039,1.313,12.55,0.34,18.049-2.458C69.972,69.388,75.463,62.327,77.29,54.344z    " data-part-id="logo__item--logo_0__1"></path>
                </g>
                <g>
                    <path fill="#1565C0" d="M13.379,47.79c5.433-0.041,10.873,0.066,16.314-0.059c0.282,5.284,2.226,10.583,6.13,14.264    c2.758,2.716,6.329,4.551,10.1,5.291c-0.481,2.882-1.146,5.724-1.561,8.614c-0.341,1.61-0.606,3.238-0.964,4.851    c-0.232,1.104-0.449,2.217-0.647,3.339c-12.111,0-24.222,0.084-36.333-0.041C8.811,71.979,11.045,59.876,13.379,47.79z" data-part-id="logo__item--logo_0__2"></path>
                    <path fill="#1565C0" d="M57.196,11.947c12.069,0.025,24.13,0.017,36.209,0C91.18,24.083,88.87,36.22,86.452,48.321    c-5.457-0.074-10.906-0.016-16.355-0.033c0.1-9.221-6.961-17.909-16.099-19.454c0.391-2.816,1.047-5.582,1.528-8.39    c0.283-1.711,0.599-3.422,0.964-5.125C56.706,14.198,56.939,13.068,57.196,11.947z" data-part-id="logo__item--logo_0__3"></path>
                    <path fill="#1565C0" d="M46.141,36.602c6.379-2.326,14.004,1.901,15.467,8.505c1.794,6.404-2.8,13.623-9.354,14.711    c-6.213,1.413-12.925-3.048-14.088-9.303C36.804,44.716,40.475,38.361,46.141,36.602z" data-part-id="logo__item--logo_0__4"></path>
                </g>
            </g>
        </g>
    </g>
</svg>
